<svg xmlns="http://www.w3.org/2000/svg" viewBox="0 0 64 64" width="64" height="64">
  <defs>
    <linearGradient id="bg" x1="0%" y1="0%" x2="100%" y2="100%">
      <stop offset="0%" stop-color="#080B14"/>
      <stop offset="100%" stop-color="#0F1221"/>
    </linearGradient>
    <linearGradient id="lg" x1="0%" y1="0%" x2="100%" y2="100%">
      <stop offset="0%" stop-color="#F59E0B"/>
      <stop offset="55%" stop-color="#FBBF24"/>
      <stop offset="100%" stop-color="#6366F1"/>
    </linearGradient>
    <linearGradient id="lg2" x1="0%" y1="100%" x2="100%" y2="0%">
      <stop offset="0%" stop-color="#6366F1"/>
      <stop offset="100%" stop-color="#F59E0B"/>
    </linearGradient>
    <radialGradient id="glow" cx="50%" cy="45%" r="50%">
      <stop offset="0%" stop-color="#F59E0B" stop-opacity="0.3"/>
      <stop offset="100%" stop-color="#080B14" stop-opacity="0"/>
    </radialGradient>
    <filter id="f1"><feGaussianBlur in="SourceGraphic" stdDeviation="2" result="b"/><feComposite in="SourceGraphic" in2="b" operator="over"/></filter>
  </defs>

  <rect width="64" height="64" rx="13" fill="url(#bg)"/>
  <circle cx="32" cy="28" r="26" fill="url(#glow)"/>

  <path d="M32 10 L46 22 L32 34 L18 22 Z"
        fill="none" stroke="url(#lg)" stroke-width="1.8"
        filter="url(#f1)"/>
  <path d="M32 30 L43 40 L32 50 L21 40 Z"
        fill="none" stroke="url(#lg2)" stroke-width="1.5"
        opacity="0.75"/>

  <line x1="32" y1="10" x2="32" y2="50"
        stroke="url(#lg)" stroke-width="0.8" opacity="0.35"/>

  <line x1="18" y1="22" x2="46" y2="22"
        stroke="url(#lg)" stroke-width="0.8" opacity="0.25"/>
  <line x1="21" y1="40" x2="43" y2="40"
        stroke="url(#lg2)" stroke-width="0.8" opacity="0.2"/>

  <circle cx="32" cy="22" r="4.5" fill="url(#lg)" filter="url(#f1)"/>
  <circle cx="32" cy="22" r="2.2" fill="#FDE68A"/>

  <circle cx="32" cy="40" r="3" fill="url(#lg2)" opacity="0.85"/>
  <circle cx="32" cy="40" r="1.4" fill="#A5B4FC"/>

  <circle cx="18" cy="22" r="1.8" fill="#F59E0B" opacity="0.7"/>
  <circle cx="46" cy="22" r="1.8" fill="#6366F1" opacity="0.7"/>
  <circle cx="21" cy="40" r="1.4" fill="#6366F1" opacity="0.55"/>
  <circle cx="43" cy="40" r="1.4" fill="#F59E0B" opacity="0.55"/>

  <rect width="64" height="64" rx="13" fill="none"
        stroke="rgba(245,158,11,0.22)" stroke-width="1"/>
</svg>
